<svg width="400" height="200" viewBox="0 0 400 200" fill="none" xmlns="http://www.w3.org/2000/svg">
<mask id="mask0_408_1217" style="mask-type:alpha" maskUnits="userSpaceOnUse" x="0" y="0" width="400" height="200">
<rect width="400" height="200" fill="#D9D9D9"/>
</mask>
<g mask="url(#mask0_408_1217)">
<path d="M205.466 118.7L204.521 137.749L251.172 133.462L250.272 151.616L137.084 162.016L137.985 143.863L184.637 139.576L185.581 120.527L149.509 123.842L150.397 105.944L167.605 104.363L169.222 71.7629L152.015 73.344L152.902 55.446L244.931 46.9898L244.043 64.8878L226.835 66.4689L225.218 99.0689L242.426 97.4877L241.538 115.386L205.466 118.7ZM207.588 68.2375L188.469 69.9943L186.852 102.594L205.971 100.837L207.588 68.2375Z" fill="black"/>
<path d="M321.563 75.8356L321.271 81.7164L367.923 77.4297L367.149 93.0265L253.962 103.427L254.735 87.8302L301.387 83.5435L301.679 77.6627L266.881 80.8602L267.623 65.9026L284.066 64.3917L284.649 52.6302L268.207 54.141L268.942 39.3113L358.421 31.0893L357.686 45.9191L341.243 47.4299L340.66 59.1915L357.102 57.6806L356.36 72.6382L321.563 75.8356ZM321.996 49.1985L303.896 50.8616L303.313 62.6231L321.413 60.96L321.996 49.1985ZM352.837 130.865L284.517 137.143L284.244 142.64L355.751 136.07L355.047 150.26L263.656 158.658L265.299 125.547L333.619 119.269L333.879 114.027L264.922 120.364L265.6 106.684L354.442 98.521L352.837 130.865Z" fill="black"/>
<path d="M56.0601 74.5734C58.7466 74.1479 61.2896 74.5508 63.6892 75.7821C66.1335 77.0063 68.0373 79.0322 69.4007 81.86C70.7671 84.6424 71.3169 88.0466 71.0502 92.0724L70.8255 95.465C70.5618 99.4456 69.546 103.075 67.7781 106.354C66.0102 109.633 63.7962 112.289 61.1361 114.322C58.5208 116.347 55.8699 117.573 53.1834 117.998C50.9447 118.353 48.806 118.199 46.7675 117.537C44.7738 116.868 43.0548 115.731 41.6105 114.124L40.5452 130.205L30.0007 131.875L33.4931 79.1547L43.4332 77.5804L43.5036 82.5375C45.1996 80.3443 47.1342 78.5608 49.3076 77.1871C51.4809 75.8134 53.7318 74.9422 56.0601 74.5734ZM60.4966 93.8782C60.7244 90.4404 60.046 87.9742 58.4614 86.4796C56.9245 84.9326 54.8576 84.3648 52.2607 84.7761C49.7085 85.1803 47.5441 86.4183 45.7676 88.4901C43.994 90.5166 42.9934 93.2488 42.7657 96.6866L42.5679 99.672C42.3402 103.11 42.9947 105.602 44.5315 107.149C46.0713 108.651 48.1173 109.2 50.6695 108.795C53.2665 108.384 55.4517 107.165 57.2253 105.139C59.0466 103.06 60.0711 100.301 60.2989 96.8637L60.4966 93.8782Z" fill="#3377FF"/>
<path d="M96.7849 68.1232C97.6804 67.9814 98.5923 67.9265 99.5206 67.9585C100.494 67.9834 101.285 68.0819 101.893 68.254L98.7747 78.2147C97.3331 77.9059 95.8063 77.8791 94.1944 78.1344C92.1795 78.4536 90.3734 79.2991 88.7762 80.6711C87.2237 82.036 86.3605 84.0302 86.1867 86.6538L84.5192 111.827L73.9746 113.497L76.7029 72.311L86.5759 70.7472L86.6597 75.5009C89.1114 71.2632 92.4865 68.804 96.7849 68.1232Z" fill="#3377FF"/>
<path d="M116.61 107.751C113.072 108.311 109.898 108.076 107.087 107.044C104.272 106.057 102.088 104.255 100.533 101.636C99.0234 99.0109 98.4049 95.64 98.6776 91.5236L98.9922 86.7741C99.2649 82.6577 100.346 79.04 102.237 75.9207C104.175 72.7492 106.647 70.2092 109.653 68.3007C112.662 66.347 115.936 65.09 119.473 64.5298C123.01 63.9696 126.184 64.2053 128.996 65.2371C131.855 66.2165 134.04 68.019 135.549 70.6445C137.107 73.2177 137.749 76.5624 137.476 80.6787L137.162 85.4283C136.889 89.5446 135.784 93.1886 133.846 96.3601C131.953 99.5246 129.48 102.065 126.429 103.98C123.42 105.934 120.147 107.191 116.61 107.751ZM117.252 98.0483C119.76 97.6512 121.896 96.5072 123.66 94.6164C125.428 92.6803 126.418 90.1065 126.631 86.8949L126.914 82.6202C127.127 79.4086 126.459 77.1198 124.91 75.7537C123.364 74.3425 121.337 73.8354 118.83 74.2325C116.367 74.6226 114.252 75.7856 112.485 77.7217C110.72 79.6125 109.732 82.1637 109.519 85.3754L109.236 89.65C109.023 92.8616 109.689 95.1731 111.235 96.5843C112.784 97.9504 114.79 98.4384 117.252 98.0483Z" fill="#3377FF"/>
</g>
</svg>
