<svg width="20" height="20" viewBox="0 0 20 20" fill="none" xmlns="http://www.w3.org/2000/svg">
<path d="M19.5845 17.4435C19.8487 17.7076 19.9971 18.0659 19.9971 18.4395C19.9971 18.8132 19.8487 19.1715 19.5845 19.4356C19.3203 19.6998 18.962 19.8482 18.5884 19.8482C18.2148 19.8482 17.8565 19.6998 17.5923 19.4356L10.152 11.9931L2.70947 19.4333C2.44529 19.6975 2.08698 19.8459 1.71338 19.8459C1.33977 19.8459 0.981464 19.6975 0.717283 19.4333C0.453103 19.1691 0.304688 18.8108 0.304688 18.4372C0.304687 18.0636 0.453103 17.7053 0.717283 17.4411L8.15986 10.0009L0.719627 2.5583C0.455446 2.29412 0.307031 1.93581 0.307031 1.5622C0.307031 1.1886 0.455446 0.830292 0.719627 0.566111C0.983807 0.301931 1.34211 0.153515 1.71572 0.153515C2.08933 0.153515 2.44763 0.301931 2.71181 0.566111L10.152 8.00869L17.5946 0.564939C17.8588 0.300759 18.2171 0.152344 18.5907 0.152344C18.9643 0.152344 19.3226 0.300759 19.5868 0.564939C19.851 0.82912 19.9994 1.18743 19.9994 1.56103C19.9994 1.93464 19.851 2.29295 19.5868 2.55713L12.1442 10.0009L19.5845 17.4435Z" fill="black"/>
</svg>
